<svg xmlns="http://www.w3.org/2000/svg" width="16" height="16" fill="#FFF" class="bi bi-question-circle" viewBox="0 0 16 16">
  <path d="M 8 15 A 7 7 0 1 1 8 1 a 7 7 0 0 1 0 14 m 0 1 A 8 8 0 1 0 8 0 a 8 8 0 0 0 0 16"/>
  <path d="M 5.3 5.8 a 0.2 0.2 0 0 0 0.2 0.2 h 0.8 c 0.1 0 0.2 -0.1 0.3 -0.3 c 0.1 -0.7 0.5 -1.1 1.3 -1.1 c 0.7 0 1.3 0.3 1.3 1.2 c 0 0.6 -0.4 0.9 -1 1.4 c -0.7 0.5 -1.2 1.1 -1.2 2 l 0 0.2 a 0.3 0.3 0 0 0 0.3 0.2 h 0.8 a 0.3 0.3 0 0 0 0.3 -0.3 v -0.1 c 0 -0.7 0.3 -0.9 1 -1.5 c 0.6 -0.5 1.2 -1 1.2 -2.1 c 0 -1.5 -1.3 -2.2 -2.7 -2.2 c -1.3 0 -2.7 0.6 -2.8 2.3 m 1.6 5.8 c 0 0.5 0.4 0.9 1 0.9 c 0.6 0 1 -0.4 1 -0.9 c 0 -0.6 -0.4 -0.9 -1 -0.9 c -0.6 0 -1 0.4 -1 0.9"/>
</svg>